<svg width="1484" height="426" viewBox="0 0 1484 426" fill="none" xmlns="http://www.w3.org/2000/svg">
<circle cx="33.1579" cy="186.211" r="33.1579" fill="#fff"/>
<circle cx="130.175" cy="186.211" r="33.1579" fill="#fff"/>
<circle cx="227.193" cy="186.211" r="33.1579" fill="#fff"/>
<circle cx="33.1579" cy="283.842" r="33.1579" fill="#fff"/>
<circle cx="130.175" cy="283.842" r="33.1579" fill="#fff"/>
<circle cx="227.193" cy="283.842" r="33.1579" fill="#fff"/>
<rect y="72" width="260.351" height="49.7369" rx="24.8684" fill="#fff"/>
<path d="M327.216 215.048C327.216 275.816 367.248 318.44 428.304 318.44C479.28 318.44 515.568 289.064 525.648 242.984H464.88C457.68 258.248 444.144 266.6 427.44 266.6C401.52 266.6 384.528 246.44 384.528 215.048C384.528 183.944 401.52 163.784 427.44 163.784C444.144 163.784 457.68 172.136 464.88 187.4H525.648C515.568 141.32 479.28 111.944 428.304 111.944C367.248 111.944 327.216 154.568 327.216 215.048ZM712.506 236.072C712.506 184.808 675.93 153.416 627.834 153.416C579.738 153.416 543.162 184.808 543.162 236.072C543.162 287.624 579.45 319.016 627.546 319.016C675.642 319.016 712.506 287.624 712.506 236.072ZM600.762 236.072C600.762 213.032 613.434 202.376 627.834 202.376C642.234 202.376 655.194 213.032 655.194 236.072C655.194 259.4 641.946 270.056 627.546 270.056C612.858 270.056 600.762 259.4 600.762 236.072ZM871.408 269.48C871.12 208.136 785.008 226.568 785.008 203.528C785.008 197.48 789.904 193.736 799.12 193.736C811.216 193.736 818.416 199.784 820.144 209.864H871.12C867.376 177.896 844.336 153.416 800.272 153.416C756.496 153.416 733.168 176.744 733.168 204.968C733.168 264.296 818.992 245 818.992 268.616C818.992 274.376 813.52 278.984 804.016 278.984C792.208 278.984 783.28 273.224 781.84 262.568H727.12C729.424 294.824 759.376 319.016 804.304 319.016C846.064 319.016 871.408 297.704 871.408 269.48ZM908.087 255.656C908.087 302.024 934.295 317 970.007 317H994.487V268.904H978.071C968.567 268.904 964.823 265.16 964.823 256.52V202.376H994.199V155.432H964.823V116.264H908.087V155.432H888.215V202.376H908.087V255.656ZM1020.38 317H1076.83V204.104L1115.42 317H1162.65L1200.95 204.968V317H1257.4V113.96H1189.43L1139.61 245.864L1088.63 113.96H1020.38V317ZM1362.11 198.056C1375.07 198.056 1386.3 205.832 1386.3 220.232H1336.48C1339.07 205.544 1348.57 198.056 1362.11 198.056ZM1440.45 261.128H1380.25C1377.09 267.752 1371.04 273.8 1360.09 273.8C1347.42 273.8 1337.34 266.312 1336.19 247.592H1443.04C1443.61 243.272 1443.9 238.664 1443.9 234.344C1443.9 184.232 1410.21 153.416 1362.4 153.416C1314.01 153.416 1280.32 184.808 1280.32 236.072C1280.32 287.624 1314.59 319.016 1362.4 319.016C1402.72 319.016 1432.96 294.248 1440.45 261.128Z" fill="#fff"/>
</svg>
